<svg width="1886" height="193" viewBox="0 0 1886 193" fill="none" xmlns="http://www.w3.org/2000/svg">
<g filter="url(#filter0_d_48_11)">
<path d="M96.7586 35.6H199.359C202.159 35.6 204.492 36.5333 206.359 38.4C208.225 40.2667 209.159 42.5333 209.159 45.2C209.159 47.8667 208.225 50.2 206.359 52.2C204.492 54.0667 202.159 55 199.359 55H96.7586C85.1586 55 75.2919 59.0667 67.1586 67.2C59.0253 75.2 54.9586 85 54.9586 96.6C54.9586 108.2 59.0253 118.067 67.1586 126.2C75.2919 134.2 85.1586 138.2 96.7586 138.2H199.359C202.159 138.2 204.492 139.2 206.359 141.2C208.225 143.067 209.159 145.333 209.159 148C209.159 150.667 208.225 152.933 206.359 154.8C204.492 156.8 202.159 157.8 199.359 157.8H96.7586C79.8253 157.8 65.3586 151.8 53.3586 139.8C41.4919 127.8 35.5586 113.4 35.5586 96.6C35.5586 79.8 41.4919 65.4667 53.3586 53.6C65.3586 41.6 79.8253 35.6 96.7586 35.6ZM306.329 35.6H371.729C388.662 35.6 403.062 41.6 414.929 53.6C426.929 65.4667 432.929 79.8 432.929 96.6C432.929 113.4 426.929 127.8 414.929 139.8C403.062 151.8 388.662 157.8 371.729 157.8H306.329C289.396 157.8 274.929 151.8 262.929 139.8C251.062 127.8 245.129 113.4 245.129 96.6C245.129 79.8 251.062 65.4667 262.929 53.6C274.929 41.6 289.396 35.6 306.329 35.6ZM306.329 55C294.729 55 284.862 59.0667 276.729 67.2C268.596 75.2 264.529 85 264.529 96.6C264.529 108.2 268.596 118.067 276.729 126.2C284.862 134.2 294.729 138.2 306.329 138.2H371.729C383.329 138.2 393.196 134.2 401.329 126.2C409.462 118.067 413.529 108.2 413.529 96.6C413.529 85 409.462 75.2 401.329 67.2C393.196 59.0667 383.329 55 371.729 55H306.329ZM480.468 88.8H531.868C534.001 88.8 535.801 89.6 537.268 91.2C538.868 92.6667 539.668 94.4667 539.668 96.6C539.668 98.7333 538.868 100.6 537.268 102.2C535.801 103.667 534.001 104.4 531.868 104.4H480.468C478.335 104.4 476.468 103.667 474.868 102.2C473.401 100.6 472.668 98.7333 472.668 96.6C472.668 94.4667 473.401 92.6667 474.868 91.2C476.468 89.6 478.335 88.8 480.468 88.8ZM588.904 35.6C589.037 35.6 589.171 35.6 589.304 35.6C591.571 35.6 593.571 36.2667 595.304 37.6L679.104 104.8L763.104 37.6C764.837 36.2667 766.837 35.6 769.104 35.6C771.771 35.6 774.037 36.5333 775.904 38.4C777.904 40.2667 778.904 42.5333 778.904 45.2V148C778.904 150.667 777.904 152.933 775.904 154.8C774.037 156.8 771.771 157.8 769.104 157.8C766.437 157.8 764.104 156.8 762.104 154.8C760.237 152.933 759.304 150.667 759.304 148V65.4L685.304 124.8C683.437 126.133 681.371 126.8 679.104 126.8C676.837 126.8 674.837 126.133 673.104 124.8L598.904 65.4V148C598.904 150.667 597.971 152.933 596.104 154.8C594.237 156.8 591.904 157.8 589.104 157.8C586.437 157.8 584.171 156.8 582.304 154.8C580.437 152.933 579.504 150.667 579.504 148V45.2C579.504 42.6667 580.371 40.4667 582.104 38.6C583.971 36.6 586.237 35.6 588.904 35.6ZM876.055 35.6H941.455C958.389 35.6 972.789 41.6 984.655 53.6C996.655 65.4667 1002.66 79.8 1002.66 96.6C1002.66 113.4 996.655 127.8 984.655 139.8C972.789 151.8 958.389 157.8 941.455 157.8H876.055C859.122 157.8 844.655 151.8 832.655 139.8C820.789 127.8 814.855 113.4 814.855 96.6C814.855 79.8 820.789 65.4667 832.655 53.6C844.655 41.6 859.122 35.6 876.055 35.6ZM876.055 55C864.455 55 854.589 59.0667 846.455 67.2C838.322 75.2 834.255 85 834.255 96.6C834.255 108.2 838.322 118.067 846.455 126.2C854.589 134.2 864.455 138.2 876.055 138.2H941.455C953.055 138.2 962.922 134.2 971.055 126.2C979.189 118.067 983.255 108.2 983.255 96.6C983.255 85 979.189 75.2 971.055 67.2C962.922 59.0667 953.055 55 941.455 55H876.055ZM1042.23 35.6H1119.23H1196.23C1199.03 35.6 1201.37 36.5333 1203.23 38.4C1205.1 40.2667 1206.03 42.5333 1206.03 45.2C1206.03 47.8667 1205.1 50.2 1203.23 52.2C1201.37 54.0667 1199.03 55 1196.23 55H1129.03V148C1129.03 150.667 1128.03 152.933 1126.03 154.8C1124.17 156.8 1121.9 157.8 1119.23 157.8C1116.57 157.8 1114.23 156.8 1112.23 154.8C1110.37 152.933 1109.43 150.667 1109.43 148V55H1042.23C1039.43 55 1037.1 54.0667 1035.23 52.2C1033.37 50.2 1032.43 47.8667 1032.43 45.2C1032.43 42.5333 1033.37 40.2667 1035.23 38.4C1037.1 36.5333 1039.43 35.6 1042.23 35.6ZM1297.15 35.6H1362.55C1379.48 35.6 1393.88 41.6 1405.75 53.6C1417.75 65.4667 1423.75 79.8 1423.75 96.6C1423.75 113.4 1417.75 127.8 1405.75 139.8C1393.88 151.8 1379.48 157.8 1362.55 157.8H1297.15C1280.22 157.8 1265.75 151.8 1253.75 139.8C1241.88 127.8 1235.95 113.4 1235.95 96.6C1235.95 79.8 1241.88 65.4667 1253.75 53.6C1265.75 41.6 1280.22 35.6 1297.15 35.6ZM1297.15 55C1285.55 55 1275.68 59.0667 1267.55 67.2C1259.42 75.2 1255.35 85 1255.35 96.6C1255.35 108.2 1259.42 118.067 1267.55 126.2C1275.68 134.2 1285.55 138.2 1297.15 138.2H1362.55C1374.15 138.2 1384.02 134.2 1392.15 126.2C1400.28 118.067 1404.35 108.2 1404.35 96.6C1404.35 85 1400.28 75.2 1392.15 67.2C1384.02 59.0667 1374.15 55 1362.55 55H1297.15ZM1473.29 35.6H1601.69C1611.42 35.6 1619.75 39.0667 1626.69 46C1633.62 52.9333 1637.09 61.2667 1637.09 71C1637.09 80.6 1633.62 88.9333 1626.69 96C1619.75 102.933 1611.42 106.4 1601.69 106.4H1582.29L1632.69 140C1633.89 140.8 1634.89 142 1635.69 143.6C1636.62 145.067 1637.09 146.533 1637.09 148C1637.09 150 1636.55 151.8 1635.49 153.4C1634.69 154.6 1633.49 155.6 1631.89 156.4C1630.29 157.333 1628.75 157.8 1627.29 157.8C1625.42 157.8 1623.62 157.2 1621.89 156L1547.29 106.4H1482.89V148C1482.89 150.667 1481.95 152.933 1480.09 154.8C1478.22 156.8 1475.89 157.8 1473.09 157.8C1470.42 157.8 1468.15 156.8 1466.29 154.8C1464.42 152.933 1463.49 150.667 1463.49 148V96.6C1463.49 93.9333 1464.42 91.6667 1466.29 89.8C1468.15 87.8 1470.49 86.8 1473.29 86.8H1550.29H1601.69C1606.09 86.8 1609.82 85.2667 1612.89 82.2C1616.09 79.1333 1617.69 75.4 1617.69 71C1617.69 66.4667 1616.09 62.6667 1612.89 59.6C1609.82 56.5333 1606.09 55 1601.69 55H1473.29C1470.49 55 1468.15 54.0667 1466.29 52.2C1464.42 50.2 1463.49 47.8667 1463.49 45.2C1463.49 42.5333 1464.42 40.2667 1466.29 38.4C1468.15 36.5333 1470.49 35.6 1473.29 35.6ZM1712.36 35.6H1830.56C1833.23 35.6 1835.5 36.5333 1837.36 38.4C1839.36 40.2667 1840.36 42.5333 1840.36 45.2C1840.36 47.8667 1839.36 50.2 1837.36 52.2C1835.5 54.0667 1833.23 55 1830.56 55H1712.36C1707.83 55 1704.03 56.5333 1700.96 59.6C1697.9 62.6667 1696.36 66.4667 1696.36 71C1696.36 75.4 1697.9 79.1333 1700.96 82.2C1704.03 85.2667 1707.83 86.8 1712.36 86.8H1815.16C1824.9 86.8 1833.23 90.3333 1840.16 97.4C1847.1 104.333 1850.56 112.667 1850.56 122.4C1850.56 132.133 1847.1 140.467 1840.16 147.4C1833.23 154.333 1824.9 157.8 1815.16 157.8H1686.76C1683.96 157.8 1681.63 156.8 1679.76 154.8C1677.9 152.933 1676.96 150.667 1676.96 148C1676.96 145.333 1677.9 143.067 1679.76 141.2C1681.63 139.2 1683.96 138.2 1686.76 138.2H1815.16C1819.7 138.2 1823.5 136.667 1826.56 133.6C1829.63 130.533 1831.16 126.8 1831.16 122.4C1831.16 117.867 1829.63 114.067 1826.56 111C1823.5 107.933 1819.7 106.4 1815.16 106.4H1712.36C1702.63 106.4 1694.3 102.933 1687.36 96C1680.43 88.9333 1676.96 80.6 1676.96 71C1676.96 61.2667 1680.43 52.9333 1687.36 46C1694.3 39.0667 1702.63 35.6 1712.36 35.6Z" fill="#FFFAFA"/>
</g>
<defs>
<filter id="filter0_d_48_11" x="0.558594" y="0.599976" width="1885.01" height="192.2" filterUnits="userSpaceOnUse" color-interpolation-filters="sRGB">
<feFlood flood-opacity="0" result="BackgroundImageFix"/>
<feColorMatrix in="SourceAlpha" type="matrix" values="0 0 0 0 0 0 0 0 0 0 0 0 0 0 0 0 0 0 127 0" result="hardAlpha"/>
<feOffset/>
<feGaussianBlur stdDeviation="17.5"/>
<feComposite in2="hardAlpha" operator="out"/>
<feColorMatrix type="matrix" values="0 0 0 0 0 0 0 0 0 0 0 0 0 0 0 0 0 0 1 0"/>
<feBlend mode="normal" in2="BackgroundImageFix" result="effect1_dropShadow_48_11"/>
<feBlend mode="normal" in="SourceGraphic" in2="effect1_dropShadow_48_11" result="shape"/>
</filter>
</defs>
</svg>
