<svg width="706" height="182" viewBox="0 0 706 182" fill="none" xmlns="http://www.w3.org/2000/svg">
<g filter="url(#filter0_d_102_279)">
<path d="M134.153 109.98H164.933C165.773 109.98 166.473 110.26 167.033 110.82C167.593 111.38 167.873 112.06 167.873 112.86C167.873 113.66 167.593 114.36 167.033 114.96C166.473 115.52 165.773 115.8 164.933 115.8H134.153C130.673 115.8 127.713 117.02 125.273 119.46C122.833 121.86 121.613 124.8 121.613 128.28C121.613 131.76 122.833 134.72 125.273 137.16C127.713 139.56 130.673 140.76 134.153 140.76H164.933C165.773 140.76 166.473 141.06 167.033 141.66C167.593 142.22 167.873 142.9 167.873 143.7C167.873 144.5 167.593 145.18 167.033 145.74C166.473 146.34 165.773 146.64 164.933 146.64H134.153C129.073 146.64 124.733 144.84 121.133 141.24C117.573 137.64 115.793 133.32 115.793 128.28C115.793 123.24 117.573 118.94 121.133 115.38C124.733 111.78 129.073 109.98 134.153 109.98ZM197.024 109.98H216.644C221.724 109.98 226.044 111.78 229.604 115.38C233.204 118.94 235.004 123.24 235.004 128.28C235.004 133.32 233.204 137.64 229.604 141.24C226.044 144.84 221.724 146.64 216.644 146.64H197.024C191.944 146.64 187.604 144.84 184.004 141.24C180.444 137.64 178.664 133.32 178.664 128.28C178.664 123.24 180.444 118.94 184.004 115.38C187.604 111.78 191.944 109.98 197.024 109.98ZM197.024 115.8C193.544 115.8 190.584 117.02 188.144 119.46C185.704 121.86 184.484 124.8 184.484 128.28C184.484 131.76 185.704 134.72 188.144 137.16C190.584 139.56 193.544 140.76 197.024 140.76H216.644C220.124 140.76 223.084 139.56 225.524 137.16C227.964 134.72 229.184 131.76 229.184 128.28C229.184 124.8 227.964 121.86 225.524 119.46C223.084 117.02 220.124 115.8 216.644 115.8H197.024Z" fill="#FFFAFA"/>
<path d="M249.746 109.98C249.786 109.98 249.826 109.98 249.866 109.98C250.546 109.98 251.146 110.18 251.666 110.58L276.806 130.74L302.006 110.58C302.526 110.18 303.126 109.98 303.806 109.98C304.606 109.98 305.286 110.26 305.846 110.82C306.446 111.38 306.746 112.06 306.746 112.86V143.7C306.746 144.5 306.446 145.18 305.846 145.74C305.286 146.34 304.606 146.64 303.806 146.64C303.006 146.64 302.306 146.34 301.706 145.74C301.146 145.18 300.866 144.5 300.866 143.7V118.92L278.666 136.74C278.106 137.14 277.486 137.34 276.806 137.34C276.126 137.34 275.526 137.14 275.006 136.74L252.746 118.92V143.7C252.746 144.5 252.466 145.18 251.906 145.74C251.346 146.34 250.646 146.64 249.806 146.64C249.006 146.64 248.326 146.34 247.766 145.74C247.206 145.18 246.926 144.5 246.926 143.7V112.86C246.926 112.1 247.186 111.44 247.706 110.88C248.266 110.28 248.946 109.98 249.746 109.98ZM335.891 109.98H355.511C360.591 109.98 364.911 111.78 368.471 115.38C372.071 118.94 373.871 123.24 373.871 128.28C373.871 133.32 372.071 137.64 368.471 141.24C364.911 144.84 360.591 146.64 355.511 146.64H335.891C330.811 146.64 326.471 144.84 322.871 141.24C319.311 137.64 317.531 133.32 317.531 128.28C317.531 123.24 319.311 118.94 322.871 115.38C326.471 111.78 330.811 109.98 335.891 109.98ZM335.891 115.8C332.411 115.8 329.451 117.02 327.011 119.46C324.571 121.86 323.351 124.8 323.351 128.28C323.351 131.76 324.571 134.72 327.011 137.16C329.451 139.56 332.411 140.76 335.891 140.76H355.511C358.991 140.76 361.951 139.56 364.391 137.16C366.831 134.72 368.051 131.76 368.051 128.28C368.051 124.8 366.831 121.86 364.391 119.46C361.951 117.02 358.991 115.8 355.511 115.8H335.891ZM385.745 109.98H408.845H431.945C432.785 109.98 433.485 110.26 434.045 110.82C434.605 111.38 434.885 112.06 434.885 112.86C434.885 113.66 434.605 114.36 434.045 114.96C433.485 115.52 432.785 115.8 431.945 115.8H411.785V143.7C411.785 144.5 411.485 145.18 410.885 145.74C410.325 146.34 409.645 146.64 408.845 146.64C408.045 146.64 407.345 146.34 406.745 145.74C406.185 145.18 405.905 144.5 405.905 143.7V115.8H385.745C384.905 115.8 384.205 115.52 383.645 114.96C383.085 114.36 382.805 113.66 382.805 112.86C382.805 112.06 383.085 111.38 383.645 110.82C384.205 110.26 384.905 109.98 385.745 109.98ZM462.219 109.98H481.839C486.919 109.98 491.239 111.78 494.799 115.38C498.399 118.94 500.199 123.24 500.199 128.28C500.199 133.32 498.399 137.64 494.799 141.24C491.239 144.84 486.919 146.64 481.839 146.64H462.219C457.139 146.64 452.799 144.84 449.199 141.24C445.639 137.64 443.859 133.32 443.859 128.28C443.859 123.24 445.639 118.94 449.199 115.38C452.799 111.78 457.139 109.98 462.219 109.98ZM462.219 115.8C458.739 115.8 455.779 117.02 453.339 119.46C450.899 121.86 449.679 124.8 449.679 128.28C449.679 131.76 450.899 134.72 453.339 137.16C455.779 139.56 458.739 140.76 462.219 140.76H481.839C485.319 140.76 488.279 139.56 490.719 137.16C493.159 134.72 494.379 131.76 494.379 128.28C494.379 124.8 493.159 121.86 490.719 119.46C488.279 117.02 485.319 115.8 481.839 115.8H462.219ZM515.061 109.98H553.581C556.501 109.98 559.001 111.02 561.081 113.1C563.161 115.18 564.201 117.68 564.201 120.6C564.201 123.48 563.161 125.98 561.081 128.1C559.001 130.18 556.501 131.22 553.581 131.22H547.761L562.881 141.3C563.241 141.54 563.541 141.9 563.781 142.38C564.061 142.82 564.201 143.26 564.201 143.7C564.201 144.3 564.041 144.84 563.721 145.32C563.481 145.68 563.121 145.98 562.641 146.22C562.161 146.5 561.701 146.64 561.261 146.64C560.701 146.64 560.161 146.46 559.641 146.1L537.261 131.22H517.941V143.7C517.941 144.5 517.661 145.18 517.101 145.74C516.541 146.34 515.841 146.64 515.001 146.64C514.201 146.64 513.521 146.34 512.961 145.74C512.401 145.18 512.121 144.5 512.121 143.7V128.28C512.121 127.48 512.401 126.8 512.961 126.24C513.521 125.64 514.221 125.34 515.061 125.34H538.161H553.581C554.901 125.34 556.021 124.88 556.941 123.96C557.901 123.04 558.381 121.92 558.381 120.6C558.381 119.24 557.901 118.1 556.941 117.18C556.021 116.26 554.901 115.8 553.581 115.8H515.061C514.221 115.8 513.521 115.52 512.961 114.96C512.401 114.36 512.121 113.66 512.121 112.86C512.121 112.06 512.401 111.38 512.961 110.82C513.521 110.26 514.221 109.98 515.061 109.98ZM586.784 109.98H622.244C623.044 109.98 623.724 110.26 624.284 110.82C624.884 111.38 625.184 112.06 625.184 112.86C625.184 113.66 624.884 114.36 624.284 114.96C623.724 115.52 623.044 115.8 622.244 115.8H586.784C585.424 115.8 584.284 116.26 583.364 117.18C582.444 118.1 581.984 119.24 581.984 120.6C581.984 121.92 582.444 123.04 583.364 123.96C584.284 124.88 585.424 125.34 586.784 125.34H617.624C620.544 125.34 623.044 126.4 625.124 128.52C627.204 130.6 628.244 133.1 628.244 136.02C628.244 138.94 627.204 141.44 625.124 143.52C623.044 145.6 620.544 146.64 617.624 146.64H579.104C578.264 146.64 577.564 146.34 577.004 145.74C576.444 145.18 576.164 144.5 576.164 143.7C576.164 142.9 576.444 142.22 577.004 141.66C577.564 141.06 578.264 140.76 579.104 140.76H617.624C618.984 140.76 620.124 140.3 621.044 139.38C621.964 138.46 622.424 137.34 622.424 136.02C622.424 134.66 621.964 133.52 621.044 132.6C620.124 131.68 618.984 131.22 617.624 131.22H586.784C583.864 131.22 581.364 130.18 579.284 128.1C577.204 125.98 576.164 123.48 576.164 120.6C576.164 117.68 577.204 115.18 579.284 113.1C581.364 111.02 583.864 109.98 586.784 109.98Z" fill="#DB631C"/>
</g>
<mask id="mask0_102_279" style="mask-type:luminance" maskUnits="userSpaceOnUse" x="2" y="63" width="376" height="89">
<path d="M2.11499 151.406C9.10055 135.878 40.0163 78.1682 116.529 69.6674C133.307 67.8023 148.915 66.9361 165.653 66.9361C181.688 66.9361 196.638 67.7392 212.464 68.5902C230.118 69.5391 248.371 70.5184 270.2 70.5184C303.46 70.5184 337.774 68.2093 377.525 63.269C355.923 68.4051 296.357 80.6992 221.413 80.6992C206.453 80.6992 191.465 80.2074 176.87 79.2389C171.967 78.9125 167.005 78.7492 162.119 78.7492C86.1849 78.7492 29.237 117.142 2.11499 151.406Z" fill="white"/>
</mask>
<g mask="url(#mask0_102_279)">
<path d="M2.11499 151.406C9.10055 135.878 40.0163 78.1682 116.529 69.6674C133.307 67.8023 148.915 66.9361 165.653 66.9361C181.688 66.9361 196.638 67.7392 212.464 68.5902C230.118 69.5391 248.371 70.5184 270.2 70.5184C303.46 70.5184 337.774 68.2093 377.525 63.269C355.923 68.4051 296.357 80.6992 221.413 80.6992C206.453 80.6992 191.465 80.2074 176.87 79.2389C171.967 78.9125 167.005 78.7492 162.119 78.7492C86.1849 78.7492 29.237 117.142 2.11499 151.406Z" fill="url(#paint0_linear_102_279)"/>
</g>
<path d="M386.424 61.5823C336.891 68.0896 300.311 69.9764 270.198 69.9764C228.691 69.9764 199.487 66.392 165.653 66.392C150.661 66.392 134.754 67.095 116.469 69.1277C26.9868 79.0691 0 155.058 0 155.058C28.6561 116.406 88.2982 79.2911 162.119 79.2911C166.964 79.2911 171.871 79.45 176.833 79.7808C192.185 80.8015 207.084 81.2433 221.42 81.2433C316.827 81.2433 386.424 61.5823 386.424 61.5823ZM367.059 65.071C340.021 70.8665 286.524 80.1551 221.42 80.1551C206.468 80.1551 191.491 79.6633 176.905 78.6948C171.993 78.3684 167.018 78.203 162.119 78.203C88.4723 78.203 32.6279 114.239 4.43948 147.7C8.0685 140.346 14.7829 128.633 25.4928 116.543C41.7271 98.2186 70.7092 75.3063 116.588 70.2093C133.346 68.3464 148.937 67.4802 165.653 67.4802C181.676 67.4802 196.618 68.2833 212.436 69.1342C230.094 70.0831 248.356 71.0646 270.198 71.0646C300.509 71.0646 331.69 69.1451 367.059 65.071Z" fill="#C93D17"/>
<mask id="mask1_102_279" style="mask-type:luminance" maskUnits="userSpaceOnUse" x="187" y="1" width="485" height="59">
<path d="M187.486 59.184C187.486 59.184 310.932 -6.23629 392.372 1.66159C509.55 13.0242 572.402 47.1119 671.115 48.533C671.115 48.533 617.852 56.3439 511.325 39.3011C371.153 16.8719 352.967 -0.569178 187.486 59.184Z" fill="white"/>
</mask>
<g mask="url(#mask1_102_279)">
<path d="M187.486 59.184C187.486 59.184 310.932 -6.23629 392.372 1.66159C509.55 13.0242 572.402 47.1119 671.115 48.533C671.115 48.533 617.852 56.3439 511.325 39.3011C371.153 16.8719 352.967 -0.569178 187.486 59.184Z" fill="url(#paint1_linear_102_279)"/>
</g>
<path d="M187.486 59.184C187.486 59.184 310.932 -6.23629 392.372 1.66159C509.55 13.0242 572.402 47.1119 671.115 48.533C671.115 48.533 617.852 56.3439 511.325 39.3011C371.153 16.8719 352.967 -0.569178 187.486 59.184Z" stroke="url(#paint2_linear_102_279)" stroke-miterlimit="10" stroke-linecap="round" stroke-linejoin="round"/>
<mask id="mask2_102_279" style="mask-type:luminance" maskUnits="userSpaceOnUse" x="253" y="44" width="288" height="47">
<path d="M253.703 87.9464C253.703 87.9464 319.579 85.5503 398.681 64.3855C478.518 43.0249 494.459 40.1869 540.197 50.2699C540.197 50.2699 496.64 49.2274 425.307 69.5717C353.973 89.916 313.541 94.693 253.703 87.9464Z" fill="white"/>
</mask>
<g mask="url(#mask2_102_279)">
<path d="M253.703 87.9464C253.703 87.9464 319.579 85.5503 398.681 64.3855C478.518 43.0249 494.459 40.1869 540.197 50.2699C540.197 50.2699 496.64 49.2274 425.307 69.5717C353.973 89.916 313.541 94.693 253.703 87.9464Z" fill="url(#paint3_linear_102_279)"/>
</g>
<path d="M253.703 87.9464C253.703 87.9464 319.579 85.5503 398.681 64.3855C478.518 43.0249 494.459 40.1869 540.197 50.2699C540.197 50.2699 496.64 49.2274 425.307 69.5717C353.973 89.916 313.541 94.693 253.703 87.9464Z" stroke="url(#paint4_linear_102_279)" stroke-miterlimit="10" stroke-linecap="round" stroke-linejoin="round"/>
<mask id="mask3_102_279" style="mask-type:luminance" maskUnits="userSpaceOnUse" x="519" y="57" width="186" height="95">
<path d="M663.572 151.854C669.614 144.626 681.34 127.536 674.728 110.062C663.951 81.5716 611.634 64.8814 519.204 60.4243C529.001 59.4797 548.018 57.9976 570.867 57.9976C611.073 57.9976 666.843 62.6006 704.561 84.4726C703.186 89.0951 689.88 131.893 663.572 151.854Z" fill="white"/>
</mask>
<g mask="url(#mask3_102_279)">
<path d="M663.572 151.854C669.614 144.626 681.34 127.536 674.728 110.062C663.951 81.5716 611.634 64.8814 519.204 60.4243C529.001 59.4797 548.018 57.9976 570.867 57.9976C611.073 57.9976 666.843 62.6006 704.561 84.4726C703.186 89.0951 689.88 131.893 663.572 151.854Z" fill="url(#paint5_linear_102_279)"/>
</g>
<path d="M570.867 57.456C537.08 57.456 511.991 60.6487 511.991 60.6487C748.479 70.2376 659.929 155.058 659.929 155.058C690.822 135.351 705.203 84.2183 705.203 84.2183C667.794 62.3441 612.672 57.456 570.867 57.456ZM570.872 57.456V58.5442C610.877 58.5442 666.31 63.1036 703.919 84.7319C703.001 87.7657 699.438 98.9716 693.157 111.805C687.584 123.194 678.87 137.83 667.122 148.233C668.484 146.352 669.916 144.174 671.265 141.752C677.514 130.541 678.887 119.518 675.237 109.871C664.682 81.9702 614.836 65.3104 526.975 60.2896C537.567 59.4452 553.052 58.5442 570.867 58.5442L570.872 57.456Z" fill="#C93D17"/>
<mask id="mask4_102_279" style="mask-type:luminance" maskUnits="userSpaceOnUse" x="6" y="106" width="83" height="50">
<path d="M70.1302 135.351C70.1302 135.351 73.1487 119.649 88.0609 106.461C88.0609 106.461 41.9011 122.746 6.92432 155.9C6.92432 155.9 41.9011 134.997 70.1302 135.351Z" fill="white"/>
</mask>
<g mask="url(#mask4_102_279)">
<path d="M70.1302 135.351C70.1302 135.351 73.1487 119.649 88.0609 106.461C88.0609 106.461 41.9011 122.746 6.92432 155.9C6.92432 155.9 41.9011 134.997 70.1302 135.351Z" fill="url(#paint6_linear_102_279)"/>
</g>
<path d="M70.1302 135.351C70.1302 135.351 73.1487 119.649 88.0609 106.461C88.0609 106.461 41.9011 122.746 6.92432 155.9C6.92432 155.9 41.9011 134.997 70.1302 135.351Z" stroke="url(#paint7_linear_102_279)" stroke-miterlimit="10" stroke-linecap="round" stroke-linejoin="round"/>
<defs>
<filter id="filter0_d_102_279" x="80.793" y="74.98" width="582.451" height="106.66" filterUnits="userSpaceOnUse" color-interpolation-filters="sRGB">
<feFlood flood-opacity="0" result="BackgroundImageFix"/>
<feColorMatrix in="SourceAlpha" type="matrix" values="0 0 0 0 0 0 0 0 0 0 0 0 0 0 0 0 0 0 127 0" result="hardAlpha"/>
<feOffset/>
<feGaussianBlur stdDeviation="17.5"/>
<feComposite in2="hardAlpha" operator="out"/>
<feColorMatrix type="matrix" values="0 0 0 0 0 0 0 0 0 0 0 0 0 0 0 0 0 0 1 0"/>
<feBlend mode="normal" in2="BackgroundImageFix" result="effect1_dropShadow_102_279"/>
<feBlend mode="normal" in="SourceGraphic" in2="effect1_dropShadow_102_279" result="shape"/>
</filter>
<linearGradient id="paint0_linear_102_279" x1="164.981" y1="64.3137" x2="207.856" y2="138.575" gradientUnits="userSpaceOnUse">
<stop stop-color="#E5591F"/>
<stop offset="0.00239749" stop-color="#E5591F"/>
<stop offset="0.236544" stop-color="#F59921"/>
<stop offset="0.30215" stop-color="#F59921"/>
<stop offset="0.973056" stop-color="#C93D17"/>
<stop offset="1" stop-color="#C93D17"/>
</linearGradient>
<linearGradient id="paint1_linear_102_279" x1="398.35" y1="0.251335" x2="470.86" y2="125.841" gradientUnits="userSpaceOnUse">
<stop stop-color="#EEEEFA"/>
<stop offset="0.208683" stop-color="#898993"/>
<stop offset="0.306766" stop-color="#898993"/>
<stop offset="0.36344" stop-color="#EEEEFA"/>
<stop offset="0.588847" stop-color="#EEEEFA"/>
<stop offset="0.795534" stop-color="#AEAEB6"/>
<stop offset="1" stop-color="#AEAEB6"/>
</linearGradient>
<linearGradient id="paint2_linear_102_279" x1="366.132" y1="1022.09" x2="492.468" y2="1240.91" gradientUnits="userSpaceOnUse">
<stop stop-color="#EEEEFA"/>
<stop offset="0.208683" stop-color="#898993"/>
<stop offset="0.306766" stop-color="#898993"/>
<stop offset="0.36344" stop-color="#EEEEFA"/>
<stop offset="0.588847" stop-color="#EEEEFA"/>
<stop offset="0.795534" stop-color="#AEAEB6"/>
<stop offset="1" stop-color="#AEAEB6"/>
</linearGradient>
<linearGradient id="paint3_linear_102_279" x1="382.231" y1="43.6125" x2="416.715" y2="103.341" gradientUnits="userSpaceOnUse">
<stop stop-color="#EEEEFA"/>
<stop offset="0.208683" stop-color="#898993"/>
<stop offset="0.306766" stop-color="#898993"/>
<stop offset="0.36344" stop-color="#EEEEFA"/>
<stop offset="0.588847" stop-color="#EEEEFA"/>
<stop offset="0.795534" stop-color="#AEAEB6"/>
<stop offset="1" stop-color="#AEAEB6"/>
</linearGradient>
<linearGradient id="paint4_linear_102_279" x1="352.572" y1="1039.39" x2="441.326" y2="1193.12" gradientUnits="userSpaceOnUse">
<stop stop-color="#EEEEFA"/>
<stop offset="0.208683" stop-color="#898993"/>
<stop offset="0.306766" stop-color="#898993"/>
<stop offset="0.36344" stop-color="#EEEEFA"/>
<stop offset="0.588847" stop-color="#EEEEFA"/>
<stop offset="0.795534" stop-color="#AEAEB6"/>
<stop offset="1" stop-color="#AEAEB6"/>
</linearGradient>
<linearGradient id="paint5_linear_102_279" x1="601.205" y1="53.954" x2="648.393" y2="135.687" gradientUnits="userSpaceOnUse">
<stop stop-color="#E5591F"/>
<stop offset="0.00239749" stop-color="#E5591F"/>
<stop offset="0.236544" stop-color="#F59921"/>
<stop offset="0.30215" stop-color="#F59921"/>
<stop offset="0.973056" stop-color="#C93D17"/>
<stop offset="1" stop-color="#C93D17"/>
</linearGradient>
<linearGradient id="paint6_linear_102_279" x1="-13.4119" y1="117.018" x2="173.307" y2="160.441" gradientUnits="userSpaceOnUse">
<stop stop-color="#EEEEFA"/>
<stop offset="0.208683" stop-color="#898993"/>
<stop offset="0.306766" stop-color="#898993"/>
<stop offset="0.36344" stop-color="#EEEEFA"/>
<stop offset="0.588847" stop-color="#EEEEFA"/>
<stop offset="0.795534" stop-color="#AEAEB6"/>
<stop offset="1" stop-color="#AEAEB6"/>
</linearGradient>
<linearGradient id="paint7_linear_102_279" x1="26.2381" y1="1017.36" x2="68.7467" y2="1090.99" gradientUnits="userSpaceOnUse">
<stop stop-color="#EEEEFA"/>
<stop offset="0.208683" stop-color="#898993"/>
<stop offset="0.306766" stop-color="#898993"/>
<stop offset="0.36344" stop-color="#EEEEFA"/>
<stop offset="0.588847" stop-color="#EEEEFA"/>
<stop offset="0.795534" stop-color="#AEAEB6"/>
<stop offset="1" stop-color="#AEAEB6"/>
</linearGradient>
</defs>
</svg>
