<svg width="712" height="243" viewBox="0 0 712 243" fill="none" xmlns="http://www.w3.org/2000/svg">
<mask id="mask0_102_175" style="mask-type:luminance" maskUnits="userSpaceOnUse" x="128" y="15" width="296" height="53">
<path d="M423.886 15.1672C419.57 39.6402 386.393 50.6834 343.679 55.5791C260.883 65.0692 142.222 51.4399 128.055 67.7657C142.225 48.3932 192.416 44.5253 247.75 42.8707L247.995 42.876C322.587 40.6085 406.44 42.2911 423.886 15.1672Z" fill="white"/>
</mask>
<g mask="url(#mask0_102_175)">
<path d="M423.886 15.1672C419.57 39.6402 386.393 50.6834 343.679 55.5791C260.883 65.0692 142.222 51.4399 128.055 67.7657C142.225 48.3932 192.416 44.5253 247.75 42.8707L247.995 42.876C322.587 40.6085 406.44 42.2911 423.886 15.1672Z" fill="url(#paint0_linear_102_175)"/>
</g>
<mask id="mask1_102_175" style="mask-type:luminance" maskUnits="userSpaceOnUse" x="230" y="0" width="358" height="44">
<path d="M587.49 39.0205C515.356 57.3389 452.74 1.98098 344.386 11.0054C317.164 13.2781 230.507 43.4854 230.507 43.4854C251.795 30.4584 326.478 5.74203 344.012 3.62689C359.774 1.72536 420.743 -7.49864 493.313 13.7176C493.331 13.7176 493.331 13.7176 493.35 13.7176C499.638 15.5648 506.009 17.6257 512.446 19.9492C559.038 36.7338 587.49 39.0205 587.49 39.0205Z" fill="white"/>
</mask>
<g mask="url(#mask1_102_175)">
<path d="M587.49 39.0205C515.356 57.3389 452.74 1.98098 344.386 11.0054C317.164 13.2781 230.507 43.4854 230.507 43.4854C251.795 30.4584 326.478 5.74203 344.012 3.62689C359.774 1.72536 420.743 -7.49864 493.313 13.7176C493.331 13.7176 493.331 13.7176 493.35 13.7176C499.638 15.5648 506.009 17.6257 512.446 19.9492C559.038 36.7338 587.49 39.0205 587.49 39.0205Z" fill="url(#paint1_linear_102_175)"/>
</g>
<mask id="mask2_102_175" style="mask-type:luminance" maskUnits="userSpaceOnUse" x="384" y="39" width="204" height="22">
<path d="M587.489 39.0204C559.222 70.9034 490.998 58.1565 433.441 55.9171C415.504 55.2062 398.617 55.5109 384.29 58.5085C436.162 34.4452 492.329 41.8763 533.686 45.0805H533.706C558.1 46.961 577.337 47.3987 587.489 39.0204Z" fill="white"/>
</mask>
<g mask="url(#mask2_102_175)">
<path d="M587.489 39.0204C559.222 70.9034 490.998 58.1565 433.441 55.9171C415.504 55.2062 398.617 55.5109 384.29 58.5085C436.162 34.4452 492.329 41.8763 533.686 45.0805H533.706C558.1 46.961 577.337 47.3987 587.489 39.0204Z" fill="url(#paint2_linear_102_175)"/>
</g>
<mask id="mask3_102_175" style="mask-type:luminance" maskUnits="userSpaceOnUse" x="124" y="66" width="52" height="16">
<path d="M175.415 67.1355C170.785 79.8438 154.586 79.8666 141.424 79.6127C133.348 79.4656 126.404 79.2152 124 81.7488C127.173 69.5377 146.421 66.4141 160.681 66.1777C167.506 66.0674 173.191 66.6119 175.415 67.1355Z" fill="white"/>
</mask>
<g mask="url(#mask3_102_175)">
<path d="M175.415 67.1355C170.785 79.8438 154.586 79.8666 141.424 79.6127C133.348 79.4656 126.404 79.2152 124 81.7488C127.173 69.5377 146.421 66.4141 160.681 66.1777C167.506 66.0674 173.191 66.6119 175.415 67.1355Z" fill="url(#paint3_linear_102_175)"/>
</g>
<mask id="mask4_102_175" style="mask-type:luminance" maskUnits="userSpaceOnUse" x="247" y="15" width="177" height="41">
<path d="M423.886 15.1672C419.57 39.6402 386.393 50.6834 343.679 55.5791C310.098 57.1409 297.332 41.6713 247.995 42.876C322.587 40.6085 406.44 42.2912 423.886 15.1672Z" fill="white"/>
</mask>
<g mask="url(#mask4_102_175)">
<path d="M423.886 15.1672C419.57 39.6402 386.393 50.6834 343.679 55.5791C310.098 57.1409 297.332 41.6713 247.995 42.876C322.587 40.6085 406.44 42.2912 423.886 15.1672Z" fill="url(#paint4_linear_102_175)"/>
</g>
<mask id="mask5_102_175" style="mask-type:luminance" maskUnits="userSpaceOnUse" x="230" y="0" width="264" height="44">
<path d="M493.313 13.7176C447.491 6.54394 407.61 0.196766 344.386 11.0054C317.164 13.2781 230.507 43.4854 230.507 43.4854C251.795 30.4584 326.478 5.74203 344.012 3.62689C359.774 1.72536 420.743 -7.49864 493.313 13.7176Z" fill="white"/>
</mask>
<g mask="url(#mask5_102_175)">
<path d="M493.313 13.7176C447.491 6.54394 407.61 0.196766 344.386 11.0054C317.164 13.2781 230.507 43.4854 230.507 43.4854C251.795 30.4584 326.478 5.74203 344.012 3.62689C359.774 1.72536 420.743 -7.49864 493.313 13.7176Z" fill="url(#paint5_linear_102_175)"/>
</g>
<mask id="mask6_102_175" style="mask-type:luminance" maskUnits="userSpaceOnUse" x="384" y="41" width="150" height="18">
<path d="M533.686 45.0805C499.285 44.4536 489.165 56.9151 433.441 55.8996C433.441 55.8996 433.441 55.8996 433.441 55.9171C415.504 55.2062 398.617 55.5109 384.29 58.5085C436.162 34.4452 492.329 41.8763 533.686 45.0805Z" fill="white"/>
</mask>
<g mask="url(#mask6_102_175)">
<path d="M533.686 45.0805C499.285 44.4536 489.165 56.9151 433.441 55.8996C433.441 55.8996 433.441 55.8996 433.441 55.9171C415.504 55.2062 398.617 55.5109 384.29 58.5085C436.162 34.4452 492.329 41.8763 533.686 45.0805Z" fill="url(#paint6_linear_102_175)"/>
</g>
<mask id="mask7_102_175" style="mask-type:luminance" maskUnits="userSpaceOnUse" x="544" y="49" width="44" height="22">
<path d="M544.625 65.9675C574.244 62.3571 586.88 49.7783 586.88 49.7783C590.514 64.7471 584.833 76.7481 544.625 65.9675Z" fill="white"/>
</mask>
<g mask="url(#mask7_102_175)">
<path d="M544.625 65.9675C574.244 62.3571 586.88 49.7783 586.88 49.7783C590.514 64.7471 584.833 76.7481 544.625 65.9675Z" fill="url(#paint7_linear_102_175)"/>
</g>
<g filter="url(#filter0_d_102_175)">
<path d="M58.6912 113.475H97.1662C98.2162 113.475 99.0912 113.825 99.7912 114.525C100.491 115.225 100.841 116.075 100.841 117.075C100.841 118.075 100.491 118.95 99.7912 119.7C99.0912 120.4 98.2162 120.75 97.1662 120.75H58.6912C54.3412 120.75 50.6412 122.275 47.5912 125.325C44.5412 128.325 43.0162 132 43.0162 136.35C43.0162 140.7 44.5412 144.4 47.5912 147.45C50.6412 150.45 54.3412 151.95 58.6912 151.95H97.1662C98.2162 151.95 99.0912 152.325 99.7912 153.075C100.491 153.775 100.841 154.625 100.841 155.625C100.841 156.625 100.491 157.475 99.7912 158.175C99.0912 158.925 98.2162 159.3 97.1662 159.3H58.6912C52.3412 159.3 46.9162 157.05 42.4162 152.55C37.9662 148.05 35.7412 142.65 35.7412 136.35C35.7412 130.05 37.9662 124.675 42.4162 120.225C46.9162 115.725 52.3412 113.475 58.6912 113.475ZM137.28 113.475H161.805C168.155 113.475 173.555 115.725 178.005 120.225C182.505 124.675 184.755 130.05 184.755 136.35C184.755 142.65 182.505 148.05 178.005 152.55C173.555 157.05 168.155 159.3 161.805 159.3H137.28C130.93 159.3 125.505 157.05 121.005 152.55C116.555 148.05 114.33 142.65 114.33 136.35C114.33 130.05 116.555 124.675 121.005 120.225C125.505 115.725 130.93 113.475 137.28 113.475ZM137.28 120.75C132.93 120.75 129.23 122.275 126.18 125.325C123.13 128.325 121.605 132 121.605 136.35C121.605 140.7 123.13 144.4 126.18 147.45C129.23 150.45 132.93 151.95 137.28 151.95H161.805C166.155 151.95 169.855 150.45 172.905 147.45C175.955 144.4 177.48 140.7 177.48 136.35C177.48 132 175.955 128.325 172.905 125.325C169.855 122.275 166.155 120.75 161.805 120.75H137.28Z" fill="#FFFAFA"/>
<path d="M203.182 113.475C203.232 113.475 203.282 113.475 203.332 113.475C204.182 113.475 204.932 113.725 205.582 114.225L237.007 139.425L268.507 114.225C269.157 113.725 269.907 113.475 270.757 113.475C271.757 113.475 272.607 113.825 273.307 114.525C274.057 115.225 274.432 116.075 274.432 117.075V155.625C274.432 156.625 274.057 157.475 273.307 158.175C272.607 158.925 271.757 159.3 270.757 159.3C269.757 159.3 268.882 158.925 268.132 158.175C267.432 157.475 267.082 156.625 267.082 155.625V124.65L239.332 146.925C238.632 147.425 237.857 147.675 237.007 147.675C236.157 147.675 235.407 147.425 234.757 146.925L206.932 124.65V155.625C206.932 156.625 206.582 157.475 205.882 158.175C205.182 158.925 204.307 159.3 203.257 159.3C202.257 159.3 201.407 158.925 200.707 158.175C200.007 157.475 199.657 156.625 199.657 155.625V117.075C199.657 116.125 199.982 115.3 200.632 114.6C201.332 113.85 202.182 113.475 203.182 113.475ZM310.864 113.475H335.389C341.739 113.475 347.139 115.725 351.589 120.225C356.089 124.675 358.339 130.05 358.339 136.35C358.339 142.65 356.089 148.05 351.589 152.55C347.139 157.05 341.739 159.3 335.389 159.3H310.864C304.514 159.3 299.089 157.05 294.589 152.55C290.139 148.05 287.914 142.65 287.914 136.35C287.914 130.05 290.139 124.675 294.589 120.225C299.089 115.725 304.514 113.475 310.864 113.475ZM310.864 120.75C306.514 120.75 302.814 122.275 299.764 125.325C296.714 128.325 295.189 132 295.189 136.35C295.189 140.7 296.714 144.4 299.764 147.45C302.814 150.45 306.514 151.95 310.864 151.95H335.389C339.739 151.95 343.439 150.45 346.489 147.45C349.539 144.4 351.064 140.7 351.064 136.35C351.064 132 349.539 128.325 346.489 125.325C343.439 122.275 339.739 120.75 335.389 120.75H310.864ZM373.181 113.475H402.056H430.931C431.981 113.475 432.856 113.825 433.556 114.525C434.256 115.225 434.606 116.075 434.606 117.075C434.606 118.075 434.256 118.95 433.556 119.7C432.856 120.4 431.981 120.75 430.931 120.75H405.731V155.625C405.731 156.625 405.356 157.475 404.606 158.175C403.906 158.925 403.056 159.3 402.056 159.3C401.056 159.3 400.181 158.925 399.431 158.175C398.731 157.475 398.381 156.625 398.381 155.625V120.75H373.181C372.131 120.75 371.256 120.4 370.556 119.7C369.856 118.95 369.506 118.075 369.506 117.075C369.506 116.075 369.856 115.225 370.556 114.525C371.256 113.825 372.131 113.475 373.181 113.475ZM468.774 113.475H493.299C499.649 113.475 505.049 115.725 509.499 120.225C513.999 124.675 516.249 130.05 516.249 136.35C516.249 142.65 513.999 148.05 509.499 152.55C505.049 157.05 499.649 159.3 493.299 159.3H468.774C462.424 159.3 456.999 157.05 452.499 152.55C448.049 148.05 445.824 142.65 445.824 136.35C445.824 130.05 448.049 124.675 452.499 120.225C456.999 115.725 462.424 113.475 468.774 113.475ZM468.774 120.75C464.424 120.75 460.724 122.275 457.674 125.325C454.624 128.325 453.099 132 453.099 136.35C453.099 140.7 454.624 144.4 457.674 147.45C460.724 150.45 464.424 151.95 468.774 151.95H493.299C497.649 151.95 501.349 150.45 504.399 147.45C507.449 144.4 508.974 140.7 508.974 136.35C508.974 132 507.449 128.325 504.399 125.325C501.349 122.275 497.649 120.75 493.299 120.75H468.774ZM534.826 113.475H582.976C586.626 113.475 589.751 114.775 592.351 117.375C594.951 119.975 596.251 123.1 596.251 126.75C596.251 130.35 594.951 133.475 592.351 136.125C589.751 138.725 586.626 140.025 582.976 140.025H575.701L594.601 152.625C595.051 152.925 595.426 153.375 595.726 153.975C596.076 154.525 596.251 155.075 596.251 155.625C596.251 156.375 596.051 157.05 595.651 157.65C595.351 158.1 594.901 158.475 594.301 158.775C593.701 159.125 593.126 159.3 592.576 159.3C591.876 159.3 591.201 159.075 590.551 158.625L562.576 140.025H538.426V155.625C538.426 156.625 538.076 157.475 537.376 158.175C536.676 158.925 535.801 159.3 534.751 159.3C533.751 159.3 532.901 158.925 532.201 158.175C531.501 157.475 531.151 156.625 531.151 155.625V136.35C531.151 135.35 531.501 134.5 532.201 133.8C532.901 133.05 533.776 132.675 534.826 132.675H563.701H582.976C584.626 132.675 586.026 132.1 587.176 130.95C588.376 129.8 588.976 128.4 588.976 126.75C588.976 125.05 588.376 123.625 587.176 122.475C586.026 121.325 584.626 120.75 582.976 120.75H534.826C533.776 120.75 532.901 120.4 532.201 119.7C531.501 118.95 531.151 118.075 531.151 117.075C531.151 116.075 531.501 115.225 532.201 114.525C532.901 113.825 533.776 113.475 534.826 113.475ZM624.48 113.475H668.805C669.805 113.475 670.655 113.825 671.355 114.525C672.105 115.225 672.48 116.075 672.48 117.075C672.48 118.075 672.105 118.95 671.355 119.7C670.655 120.4 669.805 120.75 668.805 120.75H624.48C622.78 120.75 621.355 121.325 620.205 122.475C619.055 123.625 618.48 125.05 618.48 126.75C618.48 128.4 619.055 129.8 620.205 130.95C621.355 132.1 622.78 132.675 624.48 132.675H663.03C666.68 132.675 669.805 134 672.405 136.65C675.005 139.25 676.305 142.375 676.305 146.025C676.305 149.675 675.005 152.8 672.405 155.4C669.805 158 666.68 159.3 663.03 159.3H614.88C613.83 159.3 612.955 158.925 612.255 158.175C611.555 157.475 611.205 156.625 611.205 155.625C611.205 154.625 611.555 153.775 612.255 153.075C612.955 152.325 613.83 151.95 614.88 151.95H663.03C664.73 151.95 666.155 151.375 667.305 150.225C668.455 149.075 669.03 147.675 669.03 146.025C669.03 144.325 668.455 142.9 667.305 141.75C666.155 140.6 664.73 140.025 663.03 140.025H624.48C620.83 140.025 617.705 138.725 615.105 136.125C612.505 133.475 611.205 130.35 611.205 126.75C611.205 123.1 612.505 119.975 615.105 117.375C617.705 114.775 620.83 113.475 624.48 113.475Z" fill="#DA4657"/>
</g>
<g filter="url(#filter1_d_102_175)">
<path d="M213.278 191.825C213.644 191.825 213.936 191.967 214.153 192.25L225.078 205.1C225.278 205.317 225.378 205.575 225.378 205.875C225.378 206.242 225.236 206.55 224.953 206.8C224.719 207 224.453 207.1 224.153 207.1C223.786 207.1 223.478 206.958 223.228 206.675L213.228 194.9L203.253 206.675C203.003 206.958 202.694 207.1 202.328 207.1C202.028 207.1 201.761 207 201.528 206.8C201.244 206.55 201.103 206.242 201.103 205.875C201.103 205.575 201.203 205.317 201.403 205.1L212.303 192.25C212.553 191.967 212.861 191.825 213.228 191.825C213.244 191.825 213.261 191.825 213.278 191.825ZM230.701 192.175C230.934 191.942 231.217 191.825 231.551 191.825C231.901 191.825 232.192 191.942 232.426 192.175C232.659 192.408 232.776 192.692 232.776 193.025V199.45C232.776 200.9 233.284 202.133 234.301 203.15C235.317 204.15 236.551 204.65 238.001 204.65H244.401C245.851 204.65 247.084 204.15 248.101 203.15C249.117 202.133 249.626 200.9 249.626 199.45V193.025C249.626 192.692 249.742 192.408 249.976 192.175C250.209 191.942 250.492 191.825 250.826 191.825C251.176 191.825 251.467 191.942 251.701 192.175C251.934 192.408 252.051 192.692 252.051 193.025V199.45C252.051 201.55 251.301 203.35 249.801 204.85C248.317 206.35 246.517 207.1 244.401 207.1H238.001C235.884 207.1 234.076 206.35 232.576 204.85C231.092 203.35 230.351 201.55 230.351 199.45V193.025C230.351 192.692 230.467 192.408 230.701 192.175ZM258.26 191.825H267.885H277.51C277.86 191.825 278.152 191.942 278.385 192.175C278.618 192.408 278.735 192.692 278.735 193.025C278.735 193.358 278.618 193.65 278.385 193.9C278.152 194.133 277.86 194.25 277.51 194.25H269.11V205.875C269.11 206.208 268.985 206.492 268.735 206.725C268.502 206.975 268.218 207.1 267.885 207.1C267.552 207.1 267.26 206.975 267.01 206.725C266.777 206.492 266.66 206.208 266.66 205.875V194.25H258.26C257.91 194.25 257.618 194.133 257.385 193.9C257.152 193.65 257.035 193.358 257.035 193.025C257.035 192.692 257.152 192.408 257.385 192.175C257.618 191.942 257.91 191.825 258.26 191.825ZM290.125 191.825H298.3C300.416 191.825 302.216 192.575 303.7 194.075C305.2 195.558 305.95 197.35 305.95 199.45C305.95 201.55 305.2 203.35 303.7 204.85C302.216 206.35 300.416 207.1 298.3 207.1H290.125C288.008 207.1 286.2 206.35 284.7 204.85C283.216 203.35 282.475 201.55 282.475 199.45C282.475 197.35 283.216 195.558 284.7 194.075C286.2 192.575 288.008 191.825 290.125 191.825ZM290.125 194.25C288.675 194.25 287.441 194.758 286.425 195.775C285.408 196.775 284.9 198 284.9 199.45C284.9 200.9 285.408 202.133 286.425 203.15C287.441 204.15 288.675 204.65 290.125 204.65H298.3C299.75 204.65 300.983 204.15 302 203.15C303.016 202.133 303.525 200.9 303.525 199.45C303.525 198 303.016 196.775 302 195.775C300.983 194.758 299.75 194.25 298.3 194.25H290.125ZM338.562 191.825H351.387C351.737 191.825 352.029 191.942 352.262 192.175C352.495 192.408 352.612 192.692 352.612 193.025C352.612 193.358 352.495 193.65 352.262 193.9C352.029 194.133 351.737 194.25 351.387 194.25H338.562C337.112 194.25 335.879 194.758 334.862 195.775C333.845 196.775 333.337 198 333.337 199.45C333.337 200.9 333.845 202.133 334.862 203.15C335.879 204.15 337.112 204.65 338.562 204.65H350.187V200.675H336.812C336.479 200.675 336.195 200.558 335.962 200.325C335.729 200.075 335.612 199.783 335.612 199.45C335.612 199.117 335.729 198.833 335.962 198.6C336.195 198.35 336.479 198.225 336.812 198.225H351.387C351.737 198.225 352.029 198.35 352.262 198.6C352.495 198.833 352.612 199.117 352.612 199.45V205.875C352.612 206.208 352.495 206.492 352.262 206.725C352.029 206.975 351.737 207.1 351.387 207.1H338.562C336.445 207.1 334.637 206.35 333.137 204.85C331.654 203.35 330.912 201.55 330.912 199.45C330.912 197.35 331.654 195.558 333.137 194.075C334.637 192.575 336.445 191.825 338.562 191.825ZM369.772 191.825C370.138 191.825 370.43 191.967 370.647 192.25L381.572 205.1C381.772 205.317 381.872 205.575 381.872 205.875C381.872 206.242 381.73 206.55 381.447 206.8C381.213 207 380.947 207.1 380.647 207.1C380.28 207.1 379.972 206.958 379.722 206.675L369.722 194.9L359.747 206.675C359.497 206.958 359.188 207.1 358.822 207.1C358.522 207.1 358.255 207 358.022 206.8C357.738 206.55 357.597 206.242 357.597 205.875C357.597 205.575 357.697 205.317 357.897 205.1L368.797 192.25C369.047 191.967 369.355 191.825 369.722 191.825C369.738 191.825 369.755 191.825 369.772 191.825ZM387.195 192.175C387.428 191.942 387.711 191.825 388.045 191.825C388.395 191.825 388.686 191.942 388.92 192.175C389.153 192.408 389.27 192.692 389.27 193.025V204.65H406.045C406.378 204.65 406.661 204.775 406.895 205.025C407.145 205.258 407.27 205.542 407.27 205.875C407.27 206.208 407.145 206.492 406.895 206.725C406.661 206.975 406.378 207.1 406.045 207.1H388.07C387.72 207.1 387.428 206.975 387.195 206.725C386.961 206.492 386.845 206.208 386.845 205.875V193.025C386.845 192.692 386.961 192.408 387.195 192.175ZM412.341 192.175C412.575 191.942 412.858 191.825 413.191 191.825C413.541 191.825 413.833 191.942 414.066 192.175C414.3 192.408 414.416 192.692 414.416 193.025V204.65H431.191C431.525 204.65 431.808 204.775 432.041 205.025C432.291 205.258 432.416 205.542 432.416 205.875C432.416 206.208 432.291 206.492 432.041 206.725C431.808 206.975 431.525 207.1 431.191 207.1H413.216C412.866 207.1 412.575 206.975 412.341 206.725C412.108 206.492 411.991 206.208 411.991 205.875V193.025C411.991 192.692 412.108 192.408 412.341 192.175ZM438.363 191.825H456.338C456.671 191.825 456.954 191.942 457.188 192.175C457.438 192.408 457.563 192.692 457.563 193.025C457.563 193.358 457.438 193.65 457.188 193.9C456.954 194.133 456.671 194.25 456.338 194.25H439.563V204.65H456.338C456.671 204.65 456.954 204.775 457.188 205.025C457.438 205.258 457.563 205.542 457.563 205.875C457.563 206.208 457.438 206.492 457.188 206.725C456.954 206.975 456.671 207.1 456.338 207.1H438.363C438.013 207.1 437.721 206.975 437.488 206.725C437.254 206.492 437.138 206.208 437.138 205.875V193.025C437.138 192.692 437.254 192.408 437.488 192.175C437.721 191.942 438.013 191.825 438.363 191.825ZM443.438 198.225H455.063C455.396 198.225 455.679 198.35 455.913 198.6C456.146 198.833 456.263 199.117 456.263 199.45C456.263 199.783 456.146 200.075 455.913 200.325C455.679 200.558 455.396 200.675 455.063 200.675H443.438C443.088 200.675 442.796 200.558 442.563 200.325C442.329 200.075 442.213 199.783 442.213 199.45C442.213 199.117 442.329 198.833 442.563 198.6C442.796 198.35 443.088 198.225 443.438 198.225ZM463.753 191.825H479.803C481.02 191.825 482.062 192.258 482.928 193.125C483.795 193.992 484.228 195.033 484.228 196.25C484.228 197.45 483.795 198.492 482.928 199.375C482.062 200.242 481.02 200.675 479.803 200.675H477.378L483.678 204.875C483.828 204.975 483.953 205.125 484.053 205.325C484.17 205.508 484.228 205.692 484.228 205.875C484.228 206.125 484.162 206.35 484.028 206.55C483.928 206.7 483.778 206.825 483.578 206.925C483.378 207.042 483.187 207.1 483.003 207.1C482.77 207.1 482.545 207.025 482.328 206.875L473.003 200.675H464.953V205.875C464.953 206.208 464.837 206.492 464.603 206.725C464.37 206.975 464.078 207.1 463.728 207.1C463.395 207.1 463.112 206.975 462.878 206.725C462.645 206.492 462.528 206.208 462.528 205.875V199.45C462.528 199.117 462.645 198.833 462.878 198.6C463.112 198.35 463.403 198.225 463.753 198.225H473.378H479.803C480.353 198.225 480.82 198.033 481.203 197.65C481.603 197.267 481.803 196.8 481.803 196.25C481.803 195.683 481.603 195.208 481.203 194.825C480.82 194.442 480.353 194.25 479.803 194.25H463.753C463.403 194.25 463.112 194.133 462.878 193.9C462.645 193.65 462.528 193.358 462.528 193.025C462.528 192.692 462.645 192.408 462.878 192.175C463.112 191.942 463.403 191.825 463.753 191.825ZM489.563 192.175C489.796 191.942 490.08 191.825 490.413 191.825C490.763 191.825 491.055 191.942 491.288 192.175C491.521 192.408 491.638 192.692 491.638 193.025V196.25C491.638 196.8 491.83 197.267 492.213 197.65C492.613 198.033 493.088 198.225 493.638 198.225H506.488C507.055 198.225 507.53 198.033 507.913 197.65C508.296 197.267 508.488 196.8 508.488 196.25V193.025C508.488 192.692 508.605 192.408 508.838 192.175C509.071 191.942 509.355 191.825 509.688 191.825C510.038 191.825 510.33 191.942 510.563 192.175C510.796 192.408 510.913 192.692 510.913 193.025V196.25C510.913 197.45 510.48 198.492 509.613 199.375C508.746 200.242 507.705 200.675 506.488 200.675H501.288V205.875C501.288 206.208 501.163 206.492 500.913 206.725C500.68 206.975 500.396 207.1 500.063 207.1C499.73 207.1 499.438 206.975 499.188 206.725C498.955 206.492 498.838 206.208 498.838 205.875V200.675H493.638C492.421 200.675 491.38 200.242 490.513 199.375C489.646 198.492 489.213 197.45 489.213 196.25V193.025C489.213 192.692 489.33 192.408 489.563 192.175Z" fill="#FFFAFA"/>
</g>
<defs>
<filter id="filter0_d_102_175" x="0.741211" y="78.475" width="710.564" height="115.825" filterUnits="userSpaceOnUse" color-interpolation-filters="sRGB">
<feFlood flood-opacity="0" result="BackgroundImageFix"/>
<feColorMatrix in="SourceAlpha" type="matrix" values="0 0 0 0 0 0 0 0 0 0 0 0 0 0 0 0 0 0 127 0" result="hardAlpha"/>
<feOffset/>
<feGaussianBlur stdDeviation="17.5"/>
<feComposite in2="hardAlpha" operator="out"/>
<feColorMatrix type="matrix" values="0 0 0 0 0 0 0 0 0 0 0 0 0 0 0 0 0 0 1 0"/>
<feBlend mode="normal" in2="BackgroundImageFix" result="effect1_dropShadow_102_175"/>
<feBlend mode="normal" in="SourceGraphic" in2="effect1_dropShadow_102_175" result="shape"/>
</filter>
<filter id="filter1_d_102_175" x="166.103" y="156.825" width="379.81" height="85.275" filterUnits="userSpaceOnUse" color-interpolation-filters="sRGB">
<feFlood flood-opacity="0" result="BackgroundImageFix"/>
<feColorMatrix in="SourceAlpha" type="matrix" values="0 0 0 0 0 0 0 0 0 0 0 0 0 0 0 0 0 0 127 0" result="hardAlpha"/>
<feOffset/>
<feGaussianBlur stdDeviation="17.5"/>
<feComposite in2="hardAlpha" operator="out"/>
<feColorMatrix type="matrix" values="0 0 0 0 0 0 0 0 0 0 0 0 0 0 0 0 0 0 1 0"/>
<feBlend mode="normal" in2="BackgroundImageFix" result="effect1_dropShadow_102_175"/>
<feBlend mode="normal" in="SourceGraphic" in2="effect1_dropShadow_102_175" result="shape"/>
</filter>
<linearGradient id="paint0_linear_102_175" x1="128.582" y1="38.784" x2="423.357" y2="44.1495" gradientUnits="userSpaceOnUse">
<stop stop-color="#4CB9ED"/>
<stop offset="1" stop-color="#2B2D70"/>
</linearGradient>
<linearGradient id="paint1_linear_102_175" x1="374.797" y1="30.7333" x2="572.093" y2="71.6715" gradientUnits="userSpaceOnUse">
<stop stop-color="#4CB9ED"/>
<stop offset="1" stop-color="#2B2D70"/>
</linearGradient>
<linearGradient id="paint2_linear_102_175" x1="456.506" y1="52.9387" x2="583.181" y2="45.8791" gradientUnits="userSpaceOnUse">
<stop stop-color="#4CB9ED"/>
<stop offset="1" stop-color="#2B2D70"/>
</linearGradient>
<linearGradient id="paint3_linear_102_175" x1="149.028" y1="68.074" x2="150.41" y2="81.0464" gradientUnits="userSpaceOnUse">
<stop stop-color="white"/>
<stop offset="1" stop-color="#595C5F"/>
</linearGradient>
<linearGradient id="paint4_linear_102_175" x1="248.175" y1="33.0111" x2="423.503" y2="36.2024" gradientUnits="userSpaceOnUse">
<stop stop-color="#4CB9ED"/>
<stop offset="1" stop-color="#2B2D70"/>
</linearGradient>
<linearGradient id="paint5_linear_102_175" x1="230.93" y1="20.2153" x2="493.108" y2="24.9875" gradientUnits="userSpaceOnUse">
<stop stop-color="#4CB9ED"/>
<stop offset="1" stop-color="#2B2D70"/>
</linearGradient>
<linearGradient id="paint6_linear_102_175" x1="444.624" y1="48.8135" x2="525.864" y2="65.6704" gradientUnits="userSpaceOnUse">
<stop stop-color="#4CB9ED"/>
<stop offset="1" stop-color="#2B2D70"/>
</linearGradient>
<linearGradient id="paint7_linear_102_175" x1="544.509" y1="60.6814" x2="587.876" y2="59.7449" gradientUnits="userSpaceOnUse">
<stop stop-color="#F46772"/>
<stop offset="1" stop-color="#B81A33"/>
</linearGradient>
</defs>
</svg>
